<svg width="159" height="18" viewBox="0 0 159 18" fill="none" xmlns="http://www.w3.org/2000/svg">
<path fill-rule="evenodd" clip-rule="evenodd" d="M35.5543 0C35.3695 0 35.1998 0.101909 35.113 0.265007L26.0691 17.2501C25.8918 17.5832 26.1331 17.9851 26.5104 17.9851H31.3966C31.5856 17.9851 31.7584 17.8786 31.8433 17.7098L33.1959 15.0209C33.2808 14.8521 33.4536 14.7456 33.6425 14.7456H44.0663C44.2485 14.7456 44.4163 14.8447 44.5042 15.0042L46.0049 17.7265C46.0928 17.8861 46.2606 17.9851 46.4428 17.9851H51.2685C51.6472 17.9851 51.8885 17.5803 51.7082 17.2472L42.5167 0.262035C42.4294 0.10059 42.2606 0 42.077 0H35.5543ZM36.2263 10.9698C35.853 10.9698 35.6113 10.5754 35.7808 10.2428L38.365 5.17201C38.5492 4.81074 39.0641 4.80734 39.253 5.16614L41.9222 10.2369C42.0975 10.5699 41.856 10.9698 41.4797 10.9698H36.2263ZM54.8926 17.9851C54.6164 17.9851 54.3926 17.7613 54.3926 17.4851V0.5C54.3926 0.223858 54.6164 0 54.8926 0H62.5981C62.7505 0 62.8945 0.0694654 62.9894 0.188686L72.2941 11.8828C72.5888 12.2532 73.1854 12.0448 73.1854 11.5715V0.5C73.1854 0.223858 73.4092 0 73.6854 0H78.1377C78.4139 0 78.6377 0.223859 78.6377 0.500001V17.4851C78.6377 17.7613 78.4139 17.9851 78.1377 17.9851H70.4081C70.2567 17.9851 70.1135 17.9166 70.0186 17.7987L60.7344 6.26586C60.4385 5.89829 59.8449 6.10753 59.8449 6.5794V17.4851C59.8449 17.7613 59.6211 17.9851 59.3449 17.9851H54.8926ZM90.5592 11.8202C90.5592 11.7038 90.5186 11.591 90.4444 11.5013L81.6016 0.818828C81.3318 0.492866 81.5636 0 81.9868 0H87.2131C87.364 0 87.5069 0.0681791 87.6018 0.185519L93.0161 6.87791C93.2141 7.12267 93.5864 7.12571 93.7884 6.88421L99.3964 0.179216C99.4914 0.0656329 99.6318 0 99.7799 0H104.863C105.288 0 105.519 0.497753 105.245 0.822764L96.0875 11.6567C96.0112 11.7469 95.9693 11.8613 95.9693 11.9795V17.4851C95.9693 17.7613 95.7455 17.9851 95.4693 17.9851H91.0592C90.7831 17.9851 90.5592 17.7613 90.5592 17.4851V11.8202ZM123.868 17.9851H115.328C113.651 17.9851 110.365 17.9181 108.844 16.3766C107.391 14.902 107.369 11.8636 107.369 10.6572V6.94853C107.369 6.87429 107.368 6.79595 107.368 6.71392V6.71191V6.7098V6.70758C107.362 5.35686 107.35 3.01524 108.844 1.56428C110.415 -0.00510712 112.855 -0.00225384 114.949 0.000195189L115.194 0.000386601H124.002L124.09 0.000378247C126.217 7.63938e-05 128.719 -0.000278592 130.351 1.56428C131.65 2.78099 131.622 5.15731 131.606 6.55474C131.604 6.69688 131.603 6.8289 131.603 6.94853V10.6572C131.603 10.8149 131.605 10.9848 131.607 11.1642C131.627 12.739 131.655 15.0529 130.351 16.3766C128.831 17.9181 125.12 17.9851 123.868 17.9851ZM116.423 13.5839H122.549C122.636 13.5839 122.73 13.5856 122.831 13.5874C123.758 13.6041 125.174 13.6296 125.88 12.3998C126.059 12.1317 126.148 11.2157 126.148 10.2104V7.77516C126.148 6.79214 126.059 5.85381 125.88 5.58571C125.167 4.36481 123.731 4.38563 122.805 4.39906C122.714 4.40038 122.628 4.40162 122.549 4.40162H116.423C116.343 4.40162 116.258 4.40038 116.167 4.39906L116.167 4.39906C115.241 4.38563 113.805 4.36481 113.092 5.58571C112.913 5.85381 112.824 6.65809 112.824 7.77516V10.2104C112.824 11.2381 112.913 12.1317 113.092 12.3998C113.798 13.6296 115.214 13.6041 116.141 13.5874C116.241 13.5856 116.336 13.5839 116.423 13.5839ZM135.254 0C134.978 0 134.754 0.223859 134.754 0.500001V17.4851C134.754 17.7613 134.978 17.9851 135.254 17.9851H139.706C139.982 17.9851 140.206 17.7613 140.206 17.4851V6.5794C140.206 6.10753 140.8 5.8983 141.096 6.26587L150.38 17.7987C150.475 17.9166 150.618 17.9851 150.769 17.9851H158.499C158.775 17.9851 158.999 17.7613 158.999 17.4851V0.5C158.999 0.223858 158.775 0 158.499 0H154.047C153.771 0 153.547 0.223857 153.547 0.499999V11.5715C153.547 12.0448 152.95 12.2532 152.655 11.8828L143.351 0.188685C143.256 0.0694648 143.112 0 142.959 0H135.254ZM0.5 18C0.223858 18 0 17.7761 0 17.5V0.517144C0 0.241002 0.223857 0.0171442 0.499999 0.0171442H15.6872C15.8172 0.0171442 15.9503 0.0165959 16.0859 0.016037C18.0711 0.00785784 20.606 -0.00258613 22.2793 1.67023C23.8212 3.23395 23.8212 5.22212 23.8212 7.29964V10.8515C23.8212 10.8983 23.8213 10.9455 23.8213 10.9931C23.8225 12.673 23.8241 14.8474 22.3464 16.3246C20.6927 17.933 17.4078 18 15.5978 18H0.5ZM5.95251 4.41792C5.67637 4.41792 5.45251 4.64177 5.45251 4.91792V13.0992C5.45251 13.3754 5.67637 13.5992 5.95251 13.5992H13.676C13.8115 13.5992 13.9443 13.5998 14.0746 13.6003C15.834 13.6073 17.1119 13.6124 17.9441 12.2812C18.4358 11.4547 18.4134 6.49544 17.9888 5.6689C17.2983 4.38991 15.6112 4.4024 13.8668 4.41532C13.6917 4.41662 13.5161 4.41792 13.3408 4.41792H5.95251Z" fill="#248FD6"/>
</svg>
