<svg width="26" height="26" viewBox="0 0 26 26" fill="none" xmlns="http://www.w3.org/2000/svg">
<path d="M4.3334 2.16663V7.77829C3.70962 8.00813 3.17133 8.42372 2.79111 8.96902C2.41089 9.51432 2.20703 10.1631 2.20703 10.8279C2.20703 11.4926 2.41089 12.1414 2.79111 12.6867C3.17133 13.232 3.70962 13.6476 4.3334 13.8775V23.8333H6.50007V13.8883C7.12748 13.6606 7.66957 13.2452 8.05266 12.6986C8.43574 12.152 8.64125 11.5008 8.64125 10.8333C8.64125 10.1658 8.43574 9.51455 8.05266 8.96797C7.66957 8.42139 7.12748 8.00601 6.50007 7.77829V2.16663H4.3334ZM5.41674 11.9166C5.20247 11.9166 4.99302 11.8531 4.81487 11.7341C4.63672 11.615 4.49786 11.4458 4.41587 11.2479C4.33387 11.0499 4.31242 10.8321 4.35422 10.6219C4.39602 10.4118 4.4992 10.2188 4.6507 10.0673C4.80221 9.91575 4.99524 9.81258 5.20539 9.77078C5.41553 9.72897 5.63336 9.75043 5.83131 9.83242C6.02926 9.91442 6.19846 10.0533 6.31749 10.2314C6.43653 10.4096 6.50007 10.619 6.50007 10.8333C6.50007 11.1206 6.38593 11.3962 6.18277 11.5993C5.9796 11.8025 5.70405 11.9166 5.41674 11.9166ZM11.9167 2.16663V15.3616C11.293 15.5915 10.7547 16.007 10.3744 16.5524C9.99422 17.0977 9.79037 17.7464 9.79037 18.4112C9.79037 19.076 9.99422 19.7248 10.3744 20.2701C10.7547 20.8154 11.293 21.231 11.9167 21.4608V23.8333H14.0834V21.4716C14.7072 21.2418 15.2455 20.8262 15.6257 20.2809C16.0059 19.7356 16.2098 19.0868 16.2098 18.422C16.2098 17.7573 16.0059 17.1085 15.6257 16.5632C15.2455 16.0179 14.7072 15.6023 14.0834 15.3725V2.16663H11.9167ZM13.0001 19.5C12.7858 19.5 12.5764 19.4364 12.3982 19.3174C12.22 19.1983 12.0812 19.0292 11.9992 18.8312C11.9172 18.6332 11.8958 18.4154 11.9376 18.2053C11.9794 17.9951 12.0825 17.8021 12.234 17.6506C12.3855 17.4991 12.5786 17.3959 12.7887 17.3541C12.9989 17.3123 13.2167 17.3338 13.4146 17.4158C13.6126 17.4978 13.7818 17.6366 13.9008 17.8148C14.0199 17.9929 14.0834 18.2024 14.0834 18.4166C14.0834 18.7039 13.9693 18.9795 13.7661 19.1827C13.5629 19.3858 13.2874 19.5 13.0001 19.5ZM20.5834 2.16663C19.8212 2.17254 19.0854 2.44614 18.5045 2.9396C17.9236 3.43306 17.5346 4.11499 17.4056 4.86617C17.2765 5.61736 17.4155 6.39001 17.7984 7.04907C18.1813 7.70812 18.7836 8.21165 19.5001 8.47163V23.8333H21.6667V8.47163C22.3832 8.21165 22.9855 7.70812 23.3684 7.04907C23.7513 6.39001 23.8903 5.61736 23.7613 4.86617C23.6322 4.11499 23.2432 3.43306 22.6623 2.9396C22.0814 2.44614 21.3456 2.17254 20.5834 2.16663ZM20.5834 6.49996C20.3691 6.49996 20.1597 6.43642 19.9815 6.31738C19.8034 6.19835 19.6645 6.02915 19.5825 5.8312C19.5005 5.63325 19.4791 5.41542 19.5209 5.20528C19.5627 4.99513 19.6659 4.8021 19.8174 4.65059C19.9689 4.49909 20.1619 4.39591 20.3721 4.35411C20.5822 4.31231 20.8 4.33376 20.998 4.41576C21.1959 4.49775 21.3651 4.63661 21.4842 4.81476C21.6032 4.99291 21.6667 5.20236 21.6667 5.41663C21.6667 5.70394 21.5526 5.97949 21.3494 6.18266C21.1463 6.38582 20.8707 6.49996 20.5834 6.49996Z" fill="black"/>
</svg>
