<svg width="26" height="26" viewBox="0 0 26 26" fill="none" xmlns="http://www.w3.org/2000/svg">
<path d="M22.2861 13.9286C22.0399 13.9286 21.8037 13.8308 21.6295 13.6567C21.4554 13.4825 21.3576 13.2463 21.3576 13.0001C21.3611 12.1497 21.2327 11.3039 20.9769 10.4929C20.5733 9.20805 19.8653 8.03973 18.913 7.08745C17.9607 6.13516 16.7924 5.42713 15.5076 5.02362C15.2724 4.94974 15.0762 4.78546 14.9621 4.56691C14.848 4.34836 14.8255 4.09346 14.8994 3.85827C14.9732 3.62308 15.1375 3.42687 15.3561 3.31281C15.5746 3.19874 15.8295 3.17617 16.0647 3.25005C17.6327 3.74356 19.0583 4.6082 20.2207 5.77053C21.383 6.93286 22.2476 8.35853 22.7411 9.92648C23.057 10.9204 23.2167 11.9572 23.2147 13.0001C23.2147 13.2463 23.1169 13.4825 22.9427 13.6567C22.7686 13.8308 22.5324 13.9286 22.2861 13.9286ZM10.2147 22.7872C10.1224 22.8012 10.0285 22.8012 9.93614 22.7872C8.36303 22.2892 6.93398 21.4175 5.77126 20.2467C4.60855 19.0759 3.74679 17.6409 3.25971 16.0643C2.94483 15.0734 2.78508 14.0398 2.78614 13.0001C2.78614 12.7538 2.88397 12.5176 3.05811 12.3435C3.23225 12.1693 3.46844 12.0715 3.71471 12.0715C3.96098 12.0715 4.19717 12.1693 4.37131 12.3435C4.54545 12.5176 4.64328 12.7538 4.64328 13.0001C4.6397 13.8504 4.76813 14.6962 5.02399 15.5072C5.4275 16.7921 6.13554 17.9604 7.08782 18.9127C8.0401 19.8649 9.20842 20.573 10.4933 20.9765C10.7396 21.0134 10.9611 21.1467 11.1091 21.3469C11.2571 21.5472 11.3195 21.7981 11.2826 22.0443C11.2456 22.2906 11.1124 22.5121 10.9121 22.6601C10.7118 22.8082 10.461 22.8706 10.2147 22.8336V22.7872ZM4.14185 11.1429C4.04952 11.1569 3.95561 11.1569 3.86328 11.1429C3.62987 11.0682 3.43544 10.9043 3.32238 10.6869C3.20932 10.4695 3.18679 10.2162 3.25971 9.9822C3.90347 7.90059 5.196 6.07938 6.94848 4.78465C8.70096 3.48992 10.8215 2.78952 13.0004 2.78577C13.2467 2.78577 13.4829 2.8836 13.657 3.05774C13.8312 3.23188 13.929 3.46807 13.929 3.71434C13.929 3.96061 13.8312 4.1968 13.657 4.37094C13.4829 4.54508 13.2467 4.64291 13.0004 4.64291C12.1501 4.64052 11.3045 4.76893 10.4933 5.02362C9.20842 5.42713 8.0401 6.13516 7.08782 7.08745C6.13554 8.03973 5.4275 9.20805 5.02399 10.4929C4.9649 10.6808 4.84759 10.8451 4.68902 10.9619C4.53045 11.0787 4.33882 11.1421 4.14185 11.1429ZM13.0004 23.2143C12.7542 23.2143 12.518 23.1165 12.3438 22.9424C12.1697 22.7682 12.0719 22.532 12.0719 22.2858C12.0719 22.0395 12.1697 21.8033 12.3438 21.6292C12.518 21.455 12.7542 21.3572 13.0004 21.3572C13.8507 21.3596 14.6963 21.2312 15.5076 20.9765C16.7924 20.573 17.9607 19.8649 18.913 18.9127C19.8653 17.9604 20.5733 16.7921 20.9769 15.5072C21.0134 15.3907 21.0726 15.2826 21.151 15.189C21.2293 15.0955 21.3253 15.0182 21.4336 14.9617C21.5418 14.9053 21.6601 14.8706 21.7816 14.8599C21.9032 14.8491 22.0258 14.8624 22.1422 14.899C22.2587 14.9356 22.3668 14.9947 22.4604 15.0731C22.554 15.1515 22.6312 15.2475 22.6877 15.3557C22.7441 15.4639 22.7788 15.5822 22.7895 15.7038C22.8003 15.8254 22.787 15.9479 22.7504 16.0643C22.098 18.1388 20.8006 19.9509 19.047 21.2369C17.2933 22.5229 15.175 23.2157 13.0004 23.2143Z" fill="black"/>
<path d="M0.928572 17.6429C0.756125 17.6429 0.587085 17.5948 0.440393 17.5042C0.293701 17.4135 0.175153 17.2838 0.0980322 17.1296C0.0209117 16.9753 -0.0117342 16.8026 0.00375251 16.6309C0.0192392 16.4591 0.0822467 16.2951 0.185715 16.1571L2.97143 12.4429C3.11919 12.2458 3.33917 12.1156 3.58297 12.0808C3.82676 12.0459 4.07441 12.1094 4.27143 12.2571C4.46845 12.4049 4.5987 12.6249 4.63353 12.8687C4.66835 13.1125 4.60491 13.3601 4.45714 13.5571L1.67143 17.2714C1.58494 17.3868 1.47278 17.4804 1.34384 17.5448C1.2149 17.6093 1.07273 17.6429 0.928572 17.6429ZM22.2857 13.9286C22.1133 13.9286 21.9442 13.8806 21.7975 13.7899C21.6508 13.6992 21.5323 13.5695 21.4552 13.4153C21.3781 13.261 21.3454 13.0884 21.3609 12.9166C21.3764 12.7449 21.4394 12.5808 21.5429 12.4429L24.3286 8.72857C24.4017 8.63102 24.4934 8.54883 24.5983 8.4867C24.7033 8.42457 24.8194 8.38372 24.9401 8.36648C25.0608 8.34923 25.1838 8.35593 25.3019 8.38619C25.42 8.41646 25.531 8.46969 25.6286 8.54286C25.7261 8.61602 25.8083 8.70768 25.8704 8.81261C25.9326 8.91754 25.9734 9.03368 25.9907 9.15439C26.0079 9.27511 26.0012 9.39804 25.9709 9.51617C25.9407 9.63429 25.8875 9.7453 25.8143 9.84286L23.0286 13.5571C22.9421 13.6725 22.8299 13.7661 22.701 13.8305C22.572 13.895 22.4299 13.9286 22.2857 13.9286ZM16.7143 26C16.5134 26 16.3179 25.9348 16.1571 25.8143L12.4429 23.0286C12.3453 22.9554 12.2631 22.8637 12.201 22.7588C12.1389 22.6539 12.098 22.5378 12.0808 22.417C12.0459 22.1732 12.1094 21.9256 12.2571 21.7286C12.4049 21.5316 12.6249 21.4013 12.8687 21.3665C13.1125 21.3316 13.3601 21.3951 13.5571 21.5429L17.2714 24.3286C17.4273 24.4455 17.5425 24.6085 17.6006 24.7946C17.6587 24.9806 17.6568 25.1802 17.5952 25.3651C17.5336 25.55 17.4153 25.7108 17.2572 25.8247C17.0991 25.9387 16.9092 26 16.7143 26ZM13 4.64286C12.7991 4.64286 12.6036 4.57769 12.4429 4.45714L8.72857 1.67143C8.63102 1.59826 8.54883 1.5066 8.4867 1.40167C8.42457 1.29674 8.38372 1.18061 8.36648 1.05989C8.34923 0.939175 8.35593 0.816244 8.38619 0.698118C8.41646 0.579991 8.46969 0.468982 8.54286 0.371429C8.61602 0.273875 8.70769 0.191688 8.81261 0.129559C8.91754 0.0674308 9.03368 0.0265778 9.1544 0.00933267C9.27511 -0.0079125 9.39804 -0.00121209 9.51617 0.0290515C9.6343 0.0593152 9.7453 0.112549 9.84286 0.185714L13.5571 2.97143C13.7131 3.08836 13.8282 3.25139 13.8863 3.43742C13.9444 3.62344 13.9425 3.82304 13.8809 4.00793C13.8193 4.19282 13.701 4.35363 13.5429 4.46758C13.3848 4.58154 13.1949 4.64286 13 4.64286ZM19.5 13.9286H6.5C6.25373 13.9286 6.01754 13.8307 5.8434 13.6566C5.66926 13.4825 5.57143 13.2463 5.57143 13C5.57143 12.7537 5.66926 12.5175 5.8434 12.3434C6.01754 12.1693 6.25373 12.0714 6.5 12.0714H19.5C19.7463 12.0714 19.9825 12.1693 20.1566 12.3434C20.3307 12.5175 20.4286 12.7537 20.4286 13C20.4286 13.2463 20.3307 13.4825 20.1566 13.6566C19.9825 13.8307 19.7463 13.9286 19.5 13.9286Z" fill="black"/>
<path d="M12.9999 20.4286C12.7536 20.4286 12.5174 20.3307 12.3433 20.1566C12.1691 19.9824 12.0713 19.7463 12.0713 19.5V6.49998C12.0713 6.25371 12.1691 6.01752 12.3433 5.84338C12.5174 5.66924 12.7536 5.57141 12.9999 5.57141C13.2461 5.57141 13.4823 5.66924 13.6565 5.84338C13.8306 6.01752 13.9284 6.25371 13.9284 6.49998V19.5C13.9284 19.7463 13.8306 19.9824 13.6565 20.1566C13.4823 20.3307 13.2461 20.4286 12.9999 20.4286Z" fill="black"/>
<path d="M12.9995 11.1429C12.8773 11.1436 12.7562 11.1201 12.6431 11.0739C12.5299 11.0277 12.427 10.9596 12.3403 10.8736L9.55454 8.08787C9.40242 7.91023 9.32293 7.68173 9.33195 7.44803C9.34098 7.21433 9.43786 6.99264 9.60323 6.82727C9.76861 6.6619 9.99029 6.56502 10.224 6.55599C10.4577 6.54696 10.6862 6.62646 10.8638 6.77858L12.9995 8.90501L15.126 6.77858C15.3036 6.62646 15.5321 6.54696 15.7658 6.55599C15.9995 6.56502 16.2212 6.6619 16.3866 6.82727C16.5519 6.99264 16.6488 7.21433 16.6578 7.44803C16.6669 7.68173 16.5874 7.91023 16.4353 8.08787L13.6495 10.8736C13.4766 11.0451 13.2431 11.1418 12.9995 11.1429ZM15.7853 19.5C15.663 19.5007 15.5419 19.4773 15.4288 19.4311C15.3156 19.3849 15.2127 19.3168 15.126 19.2307L12.9995 17.095L10.8731 19.2214C10.6955 19.3736 10.467 19.4531 10.2333 19.444C9.99958 19.435 9.77789 19.3381 9.61252 19.1727C9.44714 19.0074 9.35026 18.7857 9.34124 18.552C9.33221 18.3183 9.4117 18.0898 9.56383 17.9122L12.3495 15.1264C12.5235 14.9535 12.7589 14.8564 13.0042 14.8564C13.2495 14.8564 13.4848 14.9535 13.6588 15.1264L16.4445 17.9122C16.5755 18.042 16.6648 18.208 16.7011 18.3888C16.7374 18.5696 16.719 18.7572 16.6482 18.9275C16.5775 19.0979 16.4577 19.2433 16.304 19.3452C16.1503 19.4472 15.9697 19.5011 15.7853 19.5ZM7.42811 16.7143C7.24368 16.7154 7.0631 16.6615 6.9094 16.5595C6.7557 16.4576 6.63585 16.3122 6.56513 16.1418C6.4944 15.9715 6.476 15.7839 6.51228 15.6031C6.54856 15.4223 6.63787 15.2563 6.76883 15.1264L8.90454 13L6.76883 10.8736C6.6167 10.6959 6.53721 10.4674 6.54624 10.2337C6.55526 10 6.65214 9.77836 6.81752 9.61299C6.98289 9.44761 7.20458 9.35073 7.43828 9.3417C7.67198 9.33268 7.90048 9.41217 8.07811 9.56429L10.8638 12.35C11.0368 12.524 11.1338 12.7593 11.1338 13.0047C11.1338 13.25 11.0368 13.4853 10.8638 13.6593L8.07811 16.445C7.90516 16.6166 7.67171 16.7133 7.42811 16.7143ZM18.571 16.7143C18.4488 16.715 18.3276 16.6916 18.2145 16.6454C18.1013 16.5992 17.9985 16.5311 17.9117 16.445L15.126 13.6593C14.953 13.4853 14.8559 13.25 14.8559 13.0047C14.8559 12.7593 14.953 12.524 15.126 12.35L17.9117 9.56429C18.0893 9.41217 18.3178 9.33268 18.5515 9.3417C18.7852 9.35073 19.0069 9.44761 19.1723 9.61299C19.3377 9.77836 19.4345 10 19.4436 10.2337C19.4526 10.4674 19.3731 10.6959 19.221 10.8736L17.0945 13L19.221 15.1264C19.3514 15.2558 19.4405 15.4208 19.477 15.6008C19.5136 15.7808 19.496 15.9676 19.4264 16.1375C19.3569 16.3075 19.2385 16.453 19.0862 16.5556C18.9339 16.6583 18.7546 16.7135 18.571 16.7143Z" fill="black"/>
</svg>
